<svg width="500" height="500" viewBox="0 0 500 500" fill="none" xmlns="http://www.w3.org/2000/svg">
<g clip-path="url(#clip0_5523_342)">
<path d="M412.047 446.202H211.701V475.665H412.047C420.183 475.665 426.778 469.07 426.778 460.934C426.778 452.798 420.183 446.202 412.047 446.202Z" fill="#A8AFF1"/>
<path d="M229.228 475.663H131.885L14.1427 357.922C6.33219 350.111 6.33217 337.448 14.1427 329.637L305.303 38.477C313.114 30.6665 325.777 30.6665 333.587 38.477L485.858 190.748C493.669 198.558 493.669 211.222 485.858 219.032L229.228 475.663Z" fill="#E1E4FB"/>
<path d="M80.6743 424.452L131.885 475.663H229.228L485.858 219.032C493.668 211.222 493.668 198.559 485.858 190.748L400.118 105.009L80.6743 424.452Z" fill="#C5C9F7"/>
<path d="M485.852 190.758L333.584 38.4898C325.774 30.6794 313.111 30.6794 305.3 38.4898L149.307 194.483L329.859 375.035L485.852 219.042C493.663 211.231 493.663 198.568 485.852 190.758Z" fill="#F99295"/>
<path d="M485.853 190.743L400.116 105.006L229.98 275.141L329.86 375.021L485.853 219.027C493.664 211.217 493.664 198.554 485.853 190.743Z" fill="#F4717A"/>
</g>
<defs>
<clipPath id="clip0_5523_342">
<rect width="500" height="500" fill="white"/>
</clipPath>
</defs>
</svg>
