<svg width="500" height="500" viewBox="0 0 500 500" fill="none" xmlns="http://www.w3.org/2000/svg">
<path d="M29.9351 250.615C21.839 250.615 15.2759 257.178 15.2759 265.274V265.274C15.2759 327.968 39.689 386.917 84.0181 431.247C128.358 475.587 187.297 500 250 500C250.978 500 251.954 499.99 252.932 499.98C314.54 499.228 372.337 474.894 415.983 431.248C460.313 386.918 484.725 327.968 484.725 265.275C484.725 202.572 460.312 143.633 415.983 99.293C372.337 55.6572 314.54 31.3125 252.932 30.5605C251.954 30.5508 250.978 30.541 250 30.541C209.023 30.541 169.13 41.1348 133.84 61.2764L93.4713 15.4305C87.9587 9.16993 77.6555 12.0131 76.1339 20.2149L43.2048 197.706C42.0218 204.082 47.1276 209.881 53.6025 209.514L252.932 198.224V198.224C253.51 198.192 253.797 197.507 253.415 197.073L252.932 196.523L203.207 140.056C218.091 134.515 233.982 131.622 250 131.622C250.978 131.622 251.964 131.632 252.932 131.651C325.28 133.225 383.644 192.556 383.644 265.276C383.644 337.986 325.28 397.317 252.932 398.892C251.964 398.911 250.978 398.921 250 398.921C176.303 398.921 116.356 338.964 116.356 265.276V265.276C116.356 257.179 109.792 250.615 101.694 250.615H29.9351Z" fill="#446080"/>
<path d="M43.2043 197.706C42.0213 204.082 47.1271 209.881 53.602 209.514L252.932 198.224V198.224C253.51 198.192 253.797 197.507 253.415 197.073L252.932 196.523L203.207 140.056C218.091 134.515 233.982 131.622 250 131.622C250.978 131.622 251.964 131.632 252.932 131.651V30.5596C251.954 30.5498 250.978 30.54 250 30.54C209.023 30.54 169.13 41.1338 133.84 61.2754L93.4708 15.4301C87.9581 9.1696 77.6551 12.0129 76.1335 20.2146L43.2043 197.706Z" fill="#6790BF"/>
<path d="M29.9346 250.615C21.8385 250.615 15.2754 257.178 15.2754 265.274V265.274C15.2754 327.968 39.6884 386.917 84.0176 431.247C128.357 475.587 187.297 500 250 500C250.978 500 251.954 499.99 252.932 499.98V398.89C251.964 398.909 250.978 398.919 250 398.919C176.303 398.919 116.355 338.962 116.355 265.274V265.274C116.355 257.178 109.792 250.615 101.696 250.615H29.9346Z" fill="#6790BF"/>
</svg>
